<?xml version="1.0" encoding="UTF-8"?>
<svg version="1.1" xmlns="http://www.w3.org/2000/svg" width="1024" height="1024">
<path d="M0 0 C1.08958008 0.19303711 2.17916016 0.38607422 3.30175781 0.58496094 C67.30832515 12.23121116 126.95724864 44.48465263 177.72412109 84.21923828 C179.78435246 85.83126656 181.85294751 87.43157803 183.92578125 89.02734375 C195.95460009 98.32546364 207.37985181 108.28435905 218.515625 118.62890625 C219.99116257 119.991837 221.47804858 121.34118589 222.96875 122.6875 C229.78177456 128.86475819 236.36176683 135.25747963 242.875 141.75 C244.07008179 142.93819336 244.07008179 142.93819336 245.28930664 144.15039062 C249.47223774 148.34428903 253.49220581 152.61713437 257.35595703 157.10644531 C259.99282339 160.14350137 262.74928425 163.06637326 265.5 166 C270.09263922 170.92541096 274.6053885 175.8965802 279 181 C280.02024437 182.16718174 281.04114531 183.33378972 282.0625 184.5 C285.39803713 188.31375549 288.70450335 192.15163328 292 196 C292.75539063 196.87527344 293.51078125 197.75054687 294.2890625 198.65234375 C298.12760275 203.29942759 301.30808921 207.87925072 302 214 C300.93818345 224.9463633 290.83389004 233.37329311 283.65258789 240.91894531 C280.57923256 244.17438265 277.74810256 247.55002808 274.9609375 251.0546875 C269.80247092 257.40819072 264.12665462 263.17638827 258.32250977 268.93823242 C256.53352031 270.71630282 254.75572384 272.50508351 252.97851562 274.29492188 C251.84178815 275.43033093 250.70444215 276.56512116 249.56640625 277.69921875 C249.03624405 278.23342941 248.50608185 278.76764008 247.95985413 279.31803894 C244.23003617 283 244.23003617 283 242 283 C241.67 283.99 241.34 284.98 241 286 C240.34 286 239.68 286 239 286 C238.731875 286.639375 238.46375 287.27875 238.1875 287.9375 C237 290 237 290 234 291 C234 291.66 234 292.32 234 293 C232.70703125 294.3046875 232.70703125 294.3046875 230.8125 295.875 C227.57963679 298.61665078 224.44081444 301.42795462 221.34643555 304.32299805 C215.98330117 309.34042928 210.51976988 314.13885184 204.7890625 318.73828125 C202.3131672 320.74604509 199.88601604 322.80051667 197.47021484 324.87988281 C189.96809461 331.32339348 182.18313409 337.35503731 174.27539062 343.29101562 C172.74554763 344.44003933 171.21823872 345.59244399 169.69335938 346.74804688 C158.84275824 354.96544773 147.76860442 362.59047665 136.15039062 369.68310547 C134.23099413 370.8585397 132.32472633 372.05196363 130.421875 373.25390625 C55.39830506 420.11682801 -36.84628508 438.90729173 -123.5177002 418.89161682 C-149.16403312 412.84463532 -174.30885344 404.59443038 -198 393 C-198.92651367 392.55575684 -199.85302734 392.11151367 -200.80761719 391.65380859 C-220.4353156 382.2341937 -239.2592024 371.5917965 -257.19482422 359.24023438 C-259.09298578 357.93611472 -261.00078294 356.64701538 -262.91015625 355.359375 C-278.61511817 344.72694185 -293.48945333 333.20572376 -308 321 C-308.94020996 320.21061035 -308.94020996 320.21061035 -309.89941406 319.40527344 C-320.67737728 310.33242894 -331.17897795 300.97166396 -341.05249023 290.9152832 C-342.86534742 289.13242441 -344.72896323 287.47611306 -346.6640625 285.828125 C-351.33180627 281.76961517 -355.7013574 277.44583671 -360.0625 273.0625 C-361.2081543 271.92264648 -361.2081543 271.92264648 -362.37695312 270.75976562 C-366.56664106 266.5629097 -370.5944496 262.2873184 -374.44116211 257.77319336 C-376.05751581 255.9345752 -377.75230855 254.21355385 -379.5 252.5 C-382.53544067 249.5117773 -385.34515551 246.38552938 -388.12109375 243.15625 C-390.18241726 240.79065628 -392.3100682 238.49373824 -394.4375 236.1875 C-407.65743422 221.53899656 -407.65743422 221.53899656 -408.25 213.6875 C-407.80303999 207.09483981 -404.22278103 202.71093361 -400 197.875 C-399.52014648 197.31659424 -399.04029297 196.75818848 -398.54589844 196.18286133 C-394.29212945 191.26331515 -389.90257774 186.47081432 -385.484375 181.69921875 C-383.45378127 179.49302336 -381.4625896 177.26632371 -379.5 175 C-374.77717149 169.56596908 -369.89429162 164.27915432 -365 159 C-364.41573242 158.36916504 -363.83146484 157.73833008 -363.22949219 157.08837891 C-355.4563985 148.71406271 -347.565711 140.4683419 -339.5 132.375 C-338.40643188 131.27454346 -338.40643188 131.27454346 -337.29077148 130.15185547 C-333.24765288 126.12029788 -329.10652324 122.26437113 -324.78173828 118.53662109 C-322.54508666 116.60766997 -320.36731984 114.61776 -318.1875 112.625 C-312.9382925 107.89433124 -307.50506083 103.42829375 -302 99 C-300.89043217 98.09789338 -299.78106559 97.19553917 -298.671875 96.29296875 C-240.9621277 49.5077331 -173.07398997 11.54147341 -98.96875 -0.51220703 C-96.23195687 -0.96188735 -93.50823094 -1.45978937 -90.78125 -1.96484375 C-61.28617912 -7.00514067 -29.30459178 -5.42300439 0 0 Z " fill="#032239" transform="translate(570,302)"/>
<path d="M0 0 C2.51763526 2.22728582 4.9576949 4.51660654 7.38671875 6.83984375 C8.06347656 7.44183594 8.74023438 8.04382813 9.4375 8.6640625 C24.2483842 22.34706373 35.43265303 44.63485866 36.54785156 64.74560547 C36.91650828 91.29317569 34.07409438 114.1881234 17.38671875 135.83984375 C16.98614258 136.36771484 16.58556641 136.89558594 16.17285156 137.43945312 C2.02459091 155.8786683 -17.22236887 167.0801979 -39.61328125 172.83984375 C-40.30977783 173.02530762 -41.00627441 173.21077148 -41.72387695 173.40185547 C-47.46296991 174.82606383 -52.90109766 175.15311698 -58.80078125 175.08984375 C-59.71988281 175.08307617 -60.63898438 175.07630859 -61.5859375 175.06933594 C-84.11390612 174.73015434 -105.5357995 167.92168108 -122.61328125 152.83984375 C-123.83917969 151.80923828 -123.83917969 151.80923828 -125.08984375 150.7578125 C-137.84806491 139.75336494 -146.63799664 126.27796979 -152.98828125 110.77734375 C-153.48908203 109.57392334 -153.48908203 109.57392334 -154 108.34619141 C-158.05233889 98.02982043 -158.98610293 87.59768944 -158.92578125 76.58984375 C-158.9201416 75.50010254 -158.91450195 74.41036133 -158.90869141 73.28759766 C-158.50242335 46.10786266 -147.62397857 24.45256312 -128.53100586 5.31665039 C-94.66028798 -27.2196232 -36.33944331 -30.03843371 0 0 Z " fill="#012038" transform="translate(576.61328125,431.16015625)"/>
<path d="M0 0 C19.80249278 16.92431892 33.70779646 37.76911555 40.55078125 63.07421875 C40.8449292 64.13938721 40.8449292 64.13938721 41.14501953 65.22607422 C46.34852486 84.83601376 47.21783815 107.4736955 41.55078125 127.07421875 C41.3197168 127.87875488 41.08865234 128.68329102 40.85058594 129.51220703 C34.10406226 152.3527963 23.46518528 171.3461254 7.55078125 189.07421875 C6.7825 189.93917969 6.01421875 190.80414062 5.22265625 191.6953125 C-13.35232699 211.43912972 -38.24755318 222.10118614 -64.44921875 227.07421875 C-65.33996094 227.28046875 -66.23070312 227.48671875 -67.1484375 227.69921875 C-99.15518013 234.42764348 -134.73182695 225.19849144 -161.86474609 207.83056641 C-194.08230735 186.65811409 -213.27280739 155.39713176 -221.44921875 118.07421875 C-222.14858428 113.70432696 -222.41000363 109.49432317 -222.44921875 105.07421875 C-222.50980469 103.94371094 -222.57039063 102.81320312 -222.6328125 101.6484375 C-223.83185873 66.65808844 -211.2584447 34.86329728 -187.67211914 9.37133789 C-170.06029332 -9.1184879 -146.23259938 -20.76881452 -121.44921875 -25.92578125 C-120.70269043 -26.08804199 -119.95616211 -26.25030273 -119.18701172 -26.41748047 C-78.91340485 -34.91783443 -32.10902147 -26.60156234 0 0 Z M-166.44921875 36.07421875 C-176.61653865 48.2125546 -182.43067946 62.69160611 -185.44921875 78.07421875 C-185.64128906 78.97011719 -185.83335937 79.86601562 -186.03125 80.7890625 C-189.31871246 106.62790292 -184.33053756 133.02516921 -168.44921875 154.07421875 C-158.76864687 166.57180592 -148.31758668 176.25569905 -134.44921875 184.07421875 C-133.48113281 184.63238281 -132.51304687 185.19054687 -131.515625 185.765625 C-110.81946338 196.97019554 -83.70693774 198.32369034 -61.37890625 191.75 C-48.01221452 187.40861323 -36.2312892 181.07706966 -25.44921875 172.07421875 C-24.39734375 171.29046875 -23.34546875 170.50671875 -22.26171875 169.69921875 C-10.26654048 158.50371903 -1.72433699 144.48256807 3.55078125 129.07421875 C4.11007516 127.71872477 4.672124 126.36436045 5.23828125 125.01171875 C11.72545877 107.27844952 10.81949826 83.7126676 4.55078125 66.07421875 C4.17695312 65.01589844 3.803125 63.95757812 3.41796875 62.8671875 C-6.27573196 37.86257539 -24.97815113 18.24897949 -49.26171875 7.26171875 C-91.4509698 -10.57085128 -136.49720397 2.94766911 -166.44921875 36.07421875 Z " fill="#F5EEE2" transform="translate(604.44921875,410.92578125)"/>
<path d="M0 0 C6.59827932 0 9.69824611 2.7253042 14.25 7 C15.57572332 8.1978327 16.90255227 9.39444284 18.23046875 10.58984375 C19.19605713 11.46938721 19.19605713 11.46938721 20.18115234 12.36669922 C22.57537558 14.51667955 25.05550972 16.54576559 27.5625 18.5625 C31.08075986 21.40616726 34.52555718 24.31308658 37.93383789 27.28613281 C45.29436462 33.69265002 52.9442597 39.58386135 60.80029297 45.36669922 C63.12281868 47.0911939 65.4242011 48.84122346 67.72265625 50.59765625 C103.02012038 77.51249853 142.0860503 100.97800851 184 116 C185.06847168 116.38591309 186.13694336 116.77182617 187.23779297 117.16943359 C266.04858021 145.31697104 341.68597593 139.0998802 417 104 C417.9266748 103.57251465 418.85334961 103.1450293 419.80810547 102.70458984 C449.89427496 88.70182512 478.90342612 69.8861333 505.07373047 49.49804688 C507.19776275 47.84620124 509.33474083 46.21195685 511.47265625 44.578125 C520.31090275 37.79720883 528.90795995 30.80900753 537.296875 23.48095703 C539.66633076 21.42059025 542.05744121 19.38603098 544.44726562 17.34936523 C550.0895877 12.53917868 555.64925921 7.66169063 561.109375 2.64453125 C563.57773353 0.49746732 564.63591252 0.03098617 567.9375 -0.25 C571 0 571 0 572.9375 1.1875 C574 3 574 3 573.81640625 5.375 C572.80731359 8.61954674 571.60495717 9.65196965 569 11.8125 C568.10539063 12.58078125 567.21078125 13.3490625 566.2890625 14.140625 C565.51997559 14.80094727 565.51997559 14.80094727 564.73535156 15.47460938 C561.20048079 18.5817946 557.79741939 21.83266649 554.375 25.0625 C553.31925781 26.05310425 553.31925781 26.05310425 552.2421875 27.0637207 C548.02329264 31.03615261 543.88981047 35.07865247 539.82177734 39.20556641 C537.3950564 41.59586377 534.83661751 43.80853701 532.25390625 46.02734375 C530.04058859 47.96447619 527.87834809 49.95055872 525.72265625 51.95141602 C520.62867887 56.67517271 515.44108168 61.21211057 510.0234375 65.56640625 C507.78307719 67.36969368 505.56232595 69.18847908 503.3515625 71.02734375 C494.56354027 78.30740756 485.51747343 85.03489203 476.12792969 91.51611328 C474.0186769 92.98697589 471.93263034 94.48567299 469.8515625 95.99609375 C436.85933824 119.87817699 400.31405461 136.55185522 361 147 C360.13665039 147.23557617 359.27330078 147.47115234 358.38378906 147.71386719 C352.29615675 149.35961738 346.18265185 150.75962682 340 152 C339.03320312 152.19754883 338.06640625 152.39509766 337.0703125 152.59863281 C319.9339163 155.92889302 302.96878577 156.39420439 285.5625 156.4375 C284.51003082 156.4436734 283.45756165 156.4498468 282.37319946 156.45620728 C261.64382353 156.53438103 241.78464218 154.05339608 221.625 149.3125 C220.51094788 149.05397247 220.51094788 149.05397247 219.37438965 148.79022217 C160.5523474 135.07175844 108.16106721 103.51230625 61.83642578 65.50439453 C60.2374815 64.19454414 58.63289606 62.8915859 57.02734375 61.58984375 C45.22303134 52.010792 33.86849536 42.05870473 22.828125 31.609375 C19.95287834 28.88892727 17.0498813 26.20335765 14.1184082 23.54370117 C11.73233463 21.37684836 9.36720854 19.18742055 7 17 C6.5064502 16.55253418 6.01290039 16.10506836 5.50439453 15.64404297 C4.05089642 14.3201441 2.61877187 12.97289681 1.1875 11.625 C-0.05966797 10.46871094 -0.05966797 10.46871094 -1.33203125 9.2890625 C-3 7 -3 7 -2.88671875 4.3359375 C-2 2 -2 2 0 0 Z " fill="#F3EDE2" transform="translate(231,538)"/>
<path d="M0 0 C1.03318359 0.19303711 2.06636719 0.38607422 3.13085938 0.58496094 C77.9200209 14.91680467 142.08841526 56.46878217 197.66796875 106.88671875 C199.28862815 108.35535649 200.91680813 109.81572055 202.55078125 111.26953125 C207.12333365 115.34250281 211.56866865 119.47442602 215.8203125 123.8828125 C217.73502215 125.74262008 219.69362681 127.4881869 221.7109375 129.234375 C226.11145429 133.0622846 230.33413935 137.04399948 234.5 141.125 C235.22703125 141.81464844 235.9540625 142.50429688 236.703125 143.21484375 C237.38890625 143.88902344 238.0746875 144.56320312 238.78125 145.2578125 C239.40064453 145.8573877 240.02003906 146.45696289 240.65820312 147.07470703 C242.38136851 149.54721108 242.33172364 151.04535929 242 154 C240.9375 155.875 240.9375 155.875 239 157 C235.93523952 157.24518084 234.73240137 157.21203796 232 156 C229.63233088 153.9807803 227.55731889 151.793672 225.43359375 149.51953125 C222.19731822 146.16897311 218.63925865 143.3495978 215.0078125 140.44140625 C211.6738305 137.73525203 208.43156645 134.93745246 205.1875 132.125 C181.77916704 111.95870362 156.05816571 94.53571739 130 78 C129.20932129 77.49500977 128.41864258 76.99001953 127.60400391 76.46972656 C108.7519517 64.45851902 89.18629028 53.61065313 69 44 C68.28054199 43.65549805 67.56108398 43.31099609 66.81982422 42.95605469 C45.35097026 32.75892065 23.09789484 24.61444493 0 19 C-1.26714844 18.68417969 -2.53429687 18.36835938 -3.83984375 18.04296875 C-30.00902108 11.95781068 -58.67010548 11.89424152 -85 17 C-85.83547363 17.16097168 -86.67094727 17.32194336 -87.53173828 17.48779297 C-130.13153654 26.03073074 -171.96640913 45.54886674 -209 68 C-209.72606445 68.43892578 -210.45212891 68.87785156 -211.20019531 69.33007812 C-216.86818339 72.78284253 -222.4424055 76.37280489 -228 80 C-228.58946411 80.38410034 -229.17892822 80.76820068 -229.78625488 81.16394043 C-246.93056043 92.34264185 -263.82622386 103.65669446 -279.89892578 116.35009766 C-281.85303822 117.88459589 -283.82405591 119.39187889 -285.80859375 120.88671875 C-291.62815051 125.27305227 -297.16823566 129.83650751 -302.52734375 134.77734375 C-305.17604248 137.15824355 -307.91216303 139.39340251 -310.6875 141.625 C-314.53164954 144.73176684 -318.06519292 147.96400345 -321.51953125 151.4921875 C-326.78738801 156.85733977 -326.78738801 156.85733977 -331.1875 157.375 C-334 157 -334 157 -336 155 C-336.625 152.3125 -336.625 152.3125 -336 149 C-334.52294922 147.47924805 -334.52294922 147.47924805 -332.5546875 145.88671875 C-327.57657948 141.70186214 -323.05910128 137.13228108 -318.5 132.5 C-313.41149076 127.32981324 -308.30651837 122.27706086 -302.80029297 117.55078125 C-300.24257974 115.34755445 -297.78441963 113.0491321 -295.3125 110.75 C-285.78175421 101.96550948 -275.81840847 93.76773772 -265.58984375 85.8125 C-263.16394238 83.92208409 -260.76310881 82.00523103 -258.37890625 80.0625 C-244.90593146 69.09500065 -230.76867422 59.1479821 -216 50 C-215.28038086 49.55188965 -214.56076172 49.1037793 -213.81933594 48.64208984 C-193.06979974 35.77702911 -171.75312005 24.87037524 -149 16 C-148.06800781 15.63390625 -147.13601563 15.2678125 -146.17578125 14.890625 C-99.72441317 -3.19199502 -49.10467033 -9.54896054 0 0 Z " fill="#F2EDE3" transform="translate(564,336)"/>
<path d="M0 0 C5.26140005 0.4877432 8.99881551 3.2539873 13.3125 6.0625 C14.13355225 6.59053223 14.95460449 7.11856445 15.80053711 7.66259766 C18.54020862 9.4318891 21.27029627 11.21537411 24 13 C24.97130859 13.62986816 25.94261719 14.25973633 26.94335938 14.90869141 C39.74397248 23.2216139 52.11616506 31.84868055 64.01416016 41.41113281 C65.91758299 42.93405829 67.83533064 44.43596138 69.76171875 45.9296875 C77.69007788 52.080296 85.38762769 58.46350965 93 65 C94.26457031 66.05960938 94.26457031 66.05960938 95.5546875 67.140625 C96.27914062 67.75421875 97.00359375 68.3678125 97.75 69 C98.36359375 69.515625 98.9771875 70.03125 99.609375 70.5625 C101 72 101 72 102 75 C96.96531737 80.29435107 91.66105835 85.02661984 85.96484375 89.59765625 C83.42567147 91.65508834 80.93492204 93.75700828 78.45849609 95.88916016 C70.91651197 102.37066178 63.07082367 108.4132303 55.12890625 114.39453125 C53.1017792 115.92324541 51.08139563 117.46043975 49.0625 119 C6.69639741 151.19396396 6.69639741 151.19396396 -12 160 C-12.66 159.67 -13.32 159.34 -14 159 C-13.61070312 158.52175781 -13.22140625 158.04351563 -12.8203125 157.55078125 C9.66288458 127.86674456 18.04146869 85.54732945 13.15625 49.1015625 C10.87173804 34.27675543 6.96498612 20.26853544 1.76855469 6.21289062 C1.05437799 4.15656992 0.49050969 2.11948632 0 0 Z " fill="#F6EFE2" transform="translate(668,440)"/>
<path d="M0 0 C-0.60985359 3.69889459 -1.68490545 6.72735803 -3.25 10.125 C-19.31078874 48.11225685 -15.91621555 92.38962576 -1 130 C3.13771125 139.57624141 7.756086 148.63049826 14 157 C13.67 157.66 13.34 158.32 13 159 C-11.77339435 143.84451169 -35.8959894 127.65618764 -58.41015625 109.29003906 C-60.58765363 107.52316312 -62.79556846 105.79558927 -65 104.0625 C-74.59268825 96.3883494 -83.78587896 88.1886966 -92.8515625 79.90234375 C-94.4380539 78.49757773 -96.09023027 77.16620418 -97.7734375 75.87890625 C-98.50820313 75.25886719 -99.24296875 74.63882813 -100 74 C-100 73.34 -100 72.68 -100 72 C-98.53309441 70.6672812 -96.99677499 69.41086131 -95.4375 68.1875 C-91.46767736 65.01771815 -87.58649841 61.79250546 -83.77636719 58.43286133 C-63.28474719 40.37618555 -41.02190352 24.63933139 -18 10 C-17.2059375 9.49178711 -16.411875 8.98357422 -15.59375 8.45996094 C-13.35784475 7.02991321 -11.11759742 5.60702464 -8.875 4.1875 C-8.20581543 3.76057861 -7.53663086 3.33365723 -6.84716797 2.89379883 C-2.23287972 0 -2.23287972 0 0 0 Z " fill="#F7EFE3" transform="translate(363,441)"/>
<path d="M0 0 C3.51078854 2.87973541 5.30107004 5.81423272 6.04296875 10.265625 C5.23747333 15.09859753 2.84962677 18.06766644 -0.7109375 21.33203125 C-3.73164214 23.45898544 -6.13489158 24.2023468 -9.70703125 25.078125 C-18.1829672 27.54228285 -24.93832269 31.9244979 -29.41796875 39.6953125 C-31.08107651 43.80931591 -31.91099996 48.13551302 -32.86401367 52.45703125 C-34.23110863 58.25126847 -36.0530321 61.34032141 -40.45703125 65.265625 C-44.16693237 67.12057556 -48.40766162 66.71271628 -52.45703125 66.265625 C-57.24821781 63.71712151 -58.86877108 60.36477608 -60.45703125 55.265625 C-62.66436582 43.08890025 -55.09503196 29.94660373 -48.45703125 20.265625 C-40.61421414 9.63633794 -28.83005118 1.19134857 -16.01953125 -2.421875 C-9.80629527 -3.1795867 -5.33015837 -3.46399308 0 0 Z " fill="#F2EDE2" transform="translate(507.45703125,449.734375)"/>
<path d="M0 0 C0.66 0.33 1.32 0.66 2 1 C4.33077343 1.30791869 6.66241896 1.50895274 9.00390625 1.71875 C11 2 11 2 12 3 C13.85174706 3.15786308 15.7090911 3.25107356 17.56640625 3.31640625 C19.2534668 3.37924805 19.2534668 3.37924805 20.97460938 3.44335938 C22.75061523 3.50233398 22.75061523 3.50233398 24.5625 3.5625 C25.75037109 3.60568359 26.93824219 3.64886719 28.16210938 3.69335938 C31.10794784 3.79983546 34.0538743 3.90184841 37 4 C36.67 4.66 36.34 5.32 36 6 C5.01853015 6.5765232 5.01853015 6.5765232 -3 2 C-2.01 1.34 -1.02 0.68 0 0 Z " fill="#1C2937" transform="translate(492,600)"/>
<path d="M0 0 C0.99 0.33 1.98 0.66 3 1 C0.00696557 4.09892008 -3.15603615 6.84782605 -6.5 9.5625 C-7.4384375 10.32691406 -8.376875 11.09132813 -9.34375 11.87890625 C-10.2203125 12.57886719 -11.096875 13.27882813 -12 14 C-12.7115625 14.60714844 -13.423125 15.21429688 -14.15625 15.83984375 C-14.7646875 16.22269531 -15.373125 16.60554688 -16 17 C-16.99 16.67 -17.98 16.34 -19 16 C-14.12107079 11.50812572 -9.20655079 7.06300187 -4.0625 2.875 C-3.35222656 2.29492188 -2.64195312 1.71484375 -1.91015625 1.1171875 C-1.27980469 0.74851562 -0.64945312 0.37984375 0 0 Z " fill="#DBDFDE" transform="translate(436,404)"/>
<path d="M0 0 C3.77254453 0.50980331 5.44987123 1.20700182 8 4 C8.66 4 9.32 4 10 4 C10.66 2.68 11.32 1.36 12 0 C13.19713017 1.78524649 14.38247279 3.5784028 15.5625 5.375 C16.55443359 6.87160156 16.55443359 6.87160156 17.56640625 8.3984375 C18.03949219 9.25695312 18.51257813 10.11546875 19 11 C18.67 11.66 18.34 12.32 18 13 C15.36856724 11.40620833 12.74608847 9.79823727 10.125 8.1875 C9.37863281 7.73568359 8.63226563 7.28386719 7.86328125 6.81835938 C7.14785156 6.37685547 6.43242187 5.93535156 5.6953125 5.48046875 C5.03547363 5.07723389 4.37563477 4.67399902 3.69580078 4.25854492 C2 3 2 3 0 0 Z " fill="#E8EAE8" transform="translate(358,587)"/>
<path d="M0 0 C9.36978444 -0.39040768 17.34133498 2.72116729 26 6 C23.56433776 7.57572435 22.43474612 8.0730298 19.52636719 7.58447266 C18.17526855 7.12886963 18.17526855 7.12886963 16.796875 6.6640625 C15.32734375 6.18066406 15.32734375 6.18066406 13.828125 5.6875 C12.81234375 5.336875 11.7965625 4.98625 10.75 4.625 C9.203125 4.11066406 9.203125 4.11066406 7.625 3.5859375 C5.0785773 2.73712993 2.53758982 1.8747907 0 1 C0 0.67 0 0.34 0 0 Z " fill="#1F313C" transform="translate(593,343)"/>
<path d="M0 0 C7.60913098 1.2794114 14.73225897 3.42756933 22 6 C21.67 6.66 21.34 7.32 21 8 C14.12862163 6.64825344 7.3924986 4.92228508 1 2 C0.67 1.34 0.34 0.68 0 0 Z " fill="#2A3942" transform="translate(400,705)"/>
<path d="M0 0 C0.66 0.33 1.32 0.66 2 1 C0.8803014 2.00593243 -0.2459412 3.0045849 -1.375 4 C-2.31472656 4.8353125 -2.31472656 4.8353125 -3.2734375 5.6875 C-5 7 -5 7 -7 7 C-7 7.66 -7 8.32 -7 9 C-7.763125 9.45375 -8.52625 9.9075 -9.3125 10.375 C-12.00869044 12.00525469 -13.29482136 13.39735892 -15 16 C-15.99 15.67 -16.98 15.34 -18 15 C-12.45946696 9.10581592 -6.93860929 4.18284957 0 0 Z " fill="#0A1D2C" transform="translate(462,426)"/>
<path d="M0 0 C-0.66498383 4.38889325 -2.18757677 7.9811485 -4 12 C-4.433125 11.401875 -4.86625 10.80375 -5.3125 10.1875 C-6.77726301 8.28873313 -8.29047182 6.67121943 -10 5 C-8.71186658 4.16121545 -7.41936744 3.32913217 -6.125 2.5 C-5.40570313 2.0359375 -4.68640625 1.571875 -3.9453125 1.09375 C-2 0 -2 0 0 0 Z " fill="#E2E5E1" transform="translate(363,441)"/>
<path d="M0 0 C0.33 0.99 0.66 1.98 1 3 C0.00390625 4.82421875 0.00390625 4.82421875 -1.4375 6.6875 C-1.91058594 7.31011719 -2.38367188 7.93273437 -2.87109375 8.57421875 C-3.24363281 9.04472656 -3.61617187 9.51523437 -4 10 C-4.66 9.67 -5.32 9.34 -6 9 C-6.33 9.99 -6.66 10.98 -7 12 C-8.65 12.33 -10.3 12.66 -12 13 C-8.19524578 8.43969176 -4.25030379 4.14910608 0 0 Z " fill="#3D4E58" transform="translate(224,441)"/>
<path d="M0 0 C0.99 0.33 1.98 0.66 3 1 C3 1.66 3 2.32 3 3 C3.99 3.33 4.98 3.66 6 4 C4.3811004 5.03048037 2.75467511 6.04914678 1.125 7.0625 C0.22007812 7.63097656 -0.68484375 8.19945312 -1.6171875 8.78515625 C-2.40351562 9.18605469 -3.18984375 9.58695313 -4 10 C-4.66 9.67 -5.32 9.34 -6 9 C-4.02 6.03 -2.04 3.06 0 0 Z " fill="#DDE5DF" transform="translate(660,590)"/>
<path d="M0 0 C0.33 0.66 0.66 1.32 1 2 C-0.76708243 6.9109714 -3.63192311 11.0512202 -7 15 C-7.33 15.66 -7.66 16.32 -8 17 C-8.66 17 -9.32 17 -10 17 C-8.68018255 12.31812124 -6.80204328 8.99625079 -3.875 5.125 C-3.15054687 4.15820312 -2.42609375 3.19140625 -1.6796875 2.1953125 C-1.12539063 1.47085937 -0.57109375 0.74640625 0 0 Z " fill="#CCD8D3" transform="translate(463,465)"/>
<path d="M0 0 C0.66 0.33 1.32 0.66 2 1 C-0.75 5.875 -0.75 5.875 -3 7 C-3.33 7.99 -3.66 8.98 -4 10 C-3.34 10.33 -2.68 10.66 -2 11 C-5 11 -5 11 -8 9 C-8 8.34 -8 7.68 -8 7 C-6.25 5.2734375 -6.25 5.2734375 -4 3.375 C-3.2575 2.74335938 -2.515 2.11171875 -1.75 1.4609375 C-1.1725 0.97882813 -0.595 0.49671875 0 0 Z " fill="#DDE2DD" transform="translate(271,506)"/>
<path d="M0 0 C2.475 0.99 2.475 0.99 5 2 C5 2.66 5 3.32 5 4 C5.56203125 4.26554688 6.1240625 4.53109375 6.703125 4.8046875 C9.17930222 6.09331034 11.43844882 7.56130361 13.75 9.125 C14.94882812 9.93324219 14.94882812 9.93324219 16.171875 10.7578125 C16.77515625 11.16773438 17.3784375 11.57765625 18 12 C17.67 12.66 17.34 13.32 17 14 C16.02417969 13.30132813 15.04835938 12.60265625 14.04296875 11.8828125 C12.75783049 10.96351652 11.47267325 10.04424707 10.1875 9.125 C9.54490234 8.66480469 8.90230469 8.20460938 8.24023438 7.73046875 C7.61826172 7.28574219 6.99628906 6.84101562 6.35546875 6.3828125 C5.78465576 5.97434082 5.21384277 5.56586914 4.62573242 5.14501953 C3.10133561 4.07137168 1.55139015 3.0342601 0 2 C0 1.34 0 0.68 0 0 Z " fill="#14242C" transform="translate(303,591)"/>
<path d="M0 0 C0.99 0.66 1.98 1.32 3 2 C-0.36736031 4.82858266 -3.87451958 6.4998253 -8 8 C-8.99 7.67 -9.98 7.34 -11 7 C-7.37 4.69 -3.74 2.38 0 0 Z " fill="#253A49" transform="translate(320,363)"/>
<path d="M0 0 C-2.7017515 6.02698412 -6.04563882 7.64072482 -12 10 C-12.33 9.34 -12.66 8.68 -13 8 C-11.2126038 6.66094733 -9.41995047 5.32890934 -7.625 4 C-6.62726562 3.2575 -5.62953125 2.515 -4.6015625 1.75 C-2 0 -2 0 0 0 Z " fill="#E2E5E1" transform="translate(736,589)"/>
<path d="M0 0 C0.66 0.66 1.32 1.32 2 2 C0.0891381 3.48722742 -1.82803755 4.9647404 -3.75 6.4375 C-4.28882813 6.85837891 -4.82765625 7.27925781 -5.3828125 7.71289062 C-8.17307139 9.83961234 -10.47217224 11.52905212 -14 12 C-9.73412126 7.45890328 -4.96387672 3.75264754 0 0 Z " fill="#122A39" transform="translate(288,448)"/>
<path d="M0 0 C0.33 0.99 0.66 1.98 1 3 C-0.62017842 4.33918806 -2.24629343 5.6711969 -3.875 7 C-5.23238281 8.11375 -5.23238281 8.11375 -6.6171875 9.25 C-9 11 -9 11 -11 11 C-9.79447401 7.38342204 -8.51483415 6.61704438 -5.5 4.375 C-4.6853125 3.76398437 -3.870625 3.15296875 -3.03125 2.5234375 C-2.3609375 2.02070312 -1.690625 1.51796875 -1 1 C-0.67 0.67 -0.34 0.34 0 0 Z " fill="#D7DBDC" transform="translate(581,580)"/>
<path d="M0 0 C3.74322989 0.59490618 6.65242311 1.67479155 10 3.4375 C13.28083072 5.15480983 16.54158108 6.67221416 20 8 C19.34 8.66 18.68 9.32 18 10 C12.06 7.03 6.12 4.06 0 1 C0 0.67 0 0.34 0 0 Z " fill="#0E1F2A" transform="translate(643,361)"/>
<path d="M0 0 C0 3 0 3 -2.25 5.5625 C-4.51797524 7.57275078 -6.23189141 8.87225206 -9 10 C-8.62669176 7.27425729 -8.20805399 6.19177915 -6.15234375 4.296875 C-5.42144531 3.78640625 -4.69054687 3.2759375 -3.9375 2.75 C-3.20402344 2.22921875 -2.47054687 1.7084375 -1.71484375 1.171875 C-1.14894531 0.78515625 -0.58304688 0.3984375 0 0 Z " fill="#142C3B" transform="translate(730,548)"/>
<path d="M0 0 C3.08089673 2.77280706 4.68775452 5.06326356 6 9 C3.36 7.68 0.72 6.36 -2 5 C-2 4.34 -2 3.68 -2 3 C-1.34 3 -0.68 3 0 3 C0 2.01 0 1.02 0 0 Z " fill="#D8E0E2" transform="translate(371,591)"/>
<path d="M0 0 C0 3 0 3 -2.375 5.625 C-5 8 -5 8 -7 9 C-7 8.34 -7 7.68 -7 7 C-7.66 6.67 -8.32 6.34 -9 6 C-6.03 4.02 -3.06 2.04 0 0 Z " fill="#E4E5DD" transform="translate(721,599)"/>
<path d="M0 0 C0 0.66 0 1.32 0 2 C-6.93 1.505 -6.93 1.505 -14 1 C-14 0.67 -14 0.34 -14 0 C-9.20699867 -1.39151652 -4.84864218 -0.68662689 0 0 Z " fill="#223038" transform="translate(542,382)"/>
<path d="M0 0 C0.6875 1.625 0.6875 1.625 1 4 C-0.4375 7.25 -0.4375 7.25 -2 10 C-2.99 10 -3.98 10 -5 10 C-3.66511872 6.40608886 -2.03977277 3.24509304 0 0 Z " fill="#C5CED1" transform="translate(600,556)"/>
<path d="M0 0 C5.41139241 -0.36075949 5.41139241 -0.36075949 7.9375 1.1875 C9 3 9 3 8.8125 5.625 C8 8 8 8 6 9 C6 7.02 6 5.04 6 3 C4.02 2.34 2.04 1.68 0 1 C0 0.67 0 0.34 0 0 Z " fill="#CED8D6" transform="translate(796,538)"/>
<path d="M0 0 C0.66 0.33 1.32 0.66 2 1 C0.54712339 2.33927721 -0.91247259 3.67126847 -2.375 5 C-3.18710937 5.7425 -3.99921875 6.485 -4.8359375 7.25 C-7 9 -7 9 -9 9 C-7.83709195 5.51127585 -6.86032391 4.90023136 -3.9375 2.8125 C-3.20402344 2.28269531 -2.47054687 1.75289062 -1.71484375 1.20703125 C-1.14894531 0.80871094 -0.58304688 0.41039062 0 0 Z " fill="#12293A" transform="translate(755,528)"/>
<path d="M0 0 C0.6875 1.6875 0.6875 1.6875 1 4 C-0.3125 6.5 -0.3125 6.5 -2 9 C-2.68096422 10.32608822 -3.35330586 11.65686601 -4 13 C-4.66 13 -5.32 13 -6 13 C-4.58707905 8.1725201 -2.57025846 4.2837641 0 0 Z " fill="#C6D5D8" transform="translate(401,440)"/>
<path d="M0 0 C0.33 0.66 0.66 1.32 1 2 C-0.5224249 5.57769851 -2.02930459 8.45368965 -5 11 C-5.66 10.67 -6.32 10.34 -7 10 C-3.535 5.05 -3.535 5.05 0 0 Z " fill="#C7D5D9" transform="translate(409,429)"/>
<path d="M0 0 C0.804375 0.391875 1.60875 0.78375 2.4375 1.1875 C3.4275 1.5175 4.4175 1.8475 5.4375 2.1875 C5.4375 2.8475 5.4375 3.5075 5.4375 4.1875 C-0.5025 2.7025 -0.5025 2.7025 -6.5625 1.1875 C-2.5625 -0.8125 -2.5625 -0.8125 0 0 Z " fill="#E5E6E5" transform="translate(546.5625,412.8125)"/>
<path d="M0 0 C0 0.99 0 1.98 0 3 C-3.83887763 4.48320272 -6.06204091 5.22419163 -10 4 C-8.71086513 3.32845067 -7.41859796 2.66291141 -6.125 2 C-5.40570313 1.62875 -4.68640625 1.2575 -3.9453125 0.875 C-2 0 -2 0 0 0 Z " fill="#DCDFDC" transform="translate(383,367)"/>
<path d="M0 0 C-1.28813342 0.83878455 -2.58063256 1.67086783 -3.875 2.5 C-4.59429688 2.9640625 -5.31359375 3.428125 -6.0546875 3.90625 C-8 5 -8 5 -10 5 C-10 4.34 -10 3.68 -10 3 C-9.34 3 -8.68 3 -8 3 C-8 2.34 -8 1.68 -8 1 C-4.85571151 -0.9090323 -3.47925125 -1.04523725 0 0 Z " fill="#384A56" transform="translate(706,672)"/>
<path d="M0 0 C1.45922693 0.11409593 2.91740598 0.24165544 4.375 0.375 C5.59316406 0.47941406 5.59316406 0.47941406 6.8359375 0.5859375 C9 1 9 1 11 3 C8.83032311 3.95465783 7.43671207 4.14401212 5.17578125 3.3984375 C3.4315257 2.64129615 1.71372869 1.82390802 0 1 C0 0.67 0 0.34 0 0 Z " fill="#182934" transform="translate(608,347)"/>
<path d="M0 0 C-2.85478326 1.90318884 -4.41941308 2.4619099 -7.6875 3.125 C-8.49574219 3.29257812 -9.30398438 3.46015625 -10.13671875 3.6328125 C-10.75160156 3.75398437 -11.36648438 3.87515625 -12 4 C-8.07829422 -0.09996514 -5.68430095 -0.10526483 0 0 Z " fill="#38434D" transform="translate(618,712)"/>
<path d="M0 0 C-2.95183101 2.95183101 -5.95511947 3.08663988 -10 4 C-10 3.34 -10 2.68 -10 2 C-6.37626474 -0.79545292 -4.37834956 -1.37605272 0 0 Z " fill="#182D3C" transform="translate(620,654)"/>
<path d="M0 0 C0 3 0 3 -2.5 5.6875 C-3.325 6.450625 -4.15 7.21375 -5 8 C-5.66 7.34 -6.32 6.68 -7 6 C-4.69 4.02 -2.38 2.04 0 0 Z " fill="#DAE0DC" transform="translate(288,492)"/>
<path d="M0 0 C0.66 0.33 1.32 0.66 2 1 C-1.96 4.465 -1.96 4.465 -6 8 C-6.66 7.67 -7.32 7.34 -8 7 C-5.36 4.69 -2.72 2.38 0 0 Z " fill="#D8DFDE" transform="translate(258,457)"/>
<path d="M0 0 C0 3 0 3 -2.5 5.6875 C-3.325 6.450625 -4.15 7.21375 -5 8 C-5.33 7.01 -5.66 6.02 -6 5 C-4.02 3.35 -2.04 1.7 0 0 Z " fill="#182C3F" transform="translate(789,559)"/>
<path d="M0 0 C0.33 0.66 0.66 1.32 1 2 C-0.1875 4.5625 -0.1875 4.5625 -2 7 C-3.32 7.33 -4.64 7.66 -6 8 C-4.02 5.36 -2.04 2.72 0 0 Z " fill="#C1CFD1" transform="translate(416,421)"/>
<path d="M0 0 C0.99 0.66 1.98 1.32 3 2 C2.01 2.33 1.02 2.66 0 3 C0 3.66 0 4.32 0 5 C-0.99 5.33 -1.98 5.66 -3 6 C-3.66 5.34 -4.32 4.68 -5 4 C-3.35 2.68 -1.7 1.36 0 0 Z " fill="#E0E3DE" transform="translate(313,410)"/>
<path d="M0 0 C0.66 0 1.32 0 2 0 C0.75023244 3.65316671 0.32901247 4.78065836 -3 7 C-3.33 6.01 -3.66 5.02 -4 4 C-2.68 3.34 -1.36 2.68 0 2 C0 1.34 0 0.68 0 0 Z " fill="#435D69" transform="translate(854,538)"/>
<path d="M0 0 C0.33 0.66 0.66 1.32 1 2 C-1.35277269 4.72426311 -3.62496331 5.8141763 -7 7 C-2.25 1.125 -2.25 1.125 0 0 Z " fill="#172938" transform="translate(487,479)"/>
<path d="M0 0 C-1.36983503 3.16115776 -1.9890638 3.9927092 -5 6 C-5.66 5.34 -6.32 4.68 -7 4 C-2.25 0 -2.25 0 0 0 Z " fill="#DADEDA" transform="translate(313,474)"/>
<path d="M0 0 C0.66 0.99 1.32 1.98 2 3 C0.1875 4.5625 0.1875 4.5625 -2 6 C-2.99 5.67 -3.98 5.34 -5 5 C-3.35 3.35 -1.7 1.7 0 0 Z " fill="#B9C8CA" transform="translate(422,415)"/>
<path d="M0 0 C2 2 2 2 2.125 4.625 C2.08375 5.40875 2.0425 6.1925 2 7 C1.01 7.33 0.02 7.66 -1 8 C-2 6 -2 6 -1.0625 2.875 C-0.5365625 1.451875 -0.5365625 1.451875 0 0 Z " fill="#EFF0EC" transform="translate(369,587)"/>
<path d="M0 0 C0.99 0.33 1.98 0.66 3 1 C1.35 2.98 -0.3 4.96 -2 7 C-2.66 6.67 -3.32 6.34 -4 6 C-2.68 4.02 -1.36 2.04 0 0 Z " fill="#172E3C" transform="translate(628,578)"/>
<path d="M0 0 C3.76488042 1.72154788 6.15063897 3.99234114 9 7 C6 7 6 7 4.39453125 5.46875 C3.87246094 4.8190625 3.35039062 4.169375 2.8125 3.5 C2.28269531 2.8503125 1.75289063 2.200625 1.20703125 1.53125 C0.80871094 1.0259375 0.41039062 0.520625 0 0 Z " fill="#E7E8E4" transform="translate(268,518)"/>
<path d="M0 0 C0.33 0.66 0.66 1.32 1 2 C-0.4375 4.625 -0.4375 4.625 -2 7 C-2.99 6.67 -3.98 6.34 -5 6 C-3.35 4.02 -1.7 2.04 0 0 Z " fill="#33444B" transform="translate(175,494)"/>
<path d="M0 0 C0 3.90838866 -1.50567876 5.11594107 -4 8 C-4.66 7.67 -5.32 7.34 -6 7 C-4.02 4.69 -2.04 2.38 0 0 Z " fill="#374C56" transform="translate(193,474)"/>
</svg>
